<svg id="_2694619873488" xmlns="http://www.w3.org/2000/svg" width="97.751" height="56.148" viewBox="0 0 97.751 56.148">
  <g id="Group_147" data-name="Group 147" transform="translate(0 29.731)">
    <text id="tutor_on_demand" data-name="tutor on demand" transform="translate(25.133 24.418)" fill="#fefefe" font-size="6" font-family="Segoe UI"><tspan x="0" y="0">tutor on demand</tspan></text>
    <g id="Group_146" data-name="Group 146">
      <path id="Path_3" data-name="Path 3" d="M4.811,5.45H.06V7.416L1.1,7.962V22.87H4.811V5.45Zm1.857,8.519h6.171v8.847h3.713V5.45H12.839v5.625H6.668v2.894Z" transform="translate(-0.06 -5.395)" fill="#fefefe"/>
      <path id="Path_4" data-name="Path 4" d="M16.41,10.3h1.857V6.641c-.437-.218-.874-.382-1.256-.546a11.007,11.007,0,0,0-1.256-.382A10.079,10.079,0,0,0,14.5,5.495a11.877,11.877,0,0,0-1.42-.055,10.051,10.051,0,0,0-2.239.273,6.048,6.048,0,0,0-2.021.819A4.076,4.076,0,0,0,7.4,8.007a4.129,4.129,0,0,0-.546,2.239,3.665,3.665,0,0,0,.382,1.8A4.566,4.566,0,0,0,8.219,13.3a8.539,8.539,0,0,0,1.365.928,13.923,13.923,0,0,0,1.584.71c.546.218,1.092.437,1.584.6.546.218.983.437,1.42.655a3.06,3.06,0,0,1,.983.874,1.765,1.765,0,0,1,.382,1.2,1.943,1.943,0,0,1-.273,1.038,2.045,2.045,0,0,1-.71.655,2.61,2.61,0,0,1-.983.328,6.722,6.722,0,0,1-1.092.109,11.017,11.017,0,0,1-2.949-.437c-.983-.328-1.911-.655-2.84-1.038v3.277a10.424,10.424,0,0,0,2.4.819,18.2,18.2,0,0,0,3.058.273,9.41,9.41,0,0,0,2.4-.328,7.449,7.449,0,0,0,2.239-.928A6.047,6.047,0,0,0,18.486,20.4a4.094,4.094,0,0,0,.655-2.348,3.585,3.585,0,0,0-.382-1.748A4.587,4.587,0,0,0,17.776,15a6.568,6.568,0,0,0-1.42-.983c-.546-.273-1.092-.546-1.638-.765l-1.638-.655c-.546-.218-.983-.437-1.42-.655a2.93,2.93,0,0,1-.983-.765,1.549,1.549,0,0,1-.382-.928,1.913,1.913,0,0,1,.928-1.638,4.724,4.724,0,0,1,.928-.382,6.017,6.017,0,0,1,.983-.109h.6l.491.055a1.6,1.6,0,0,1,.491.109l.546.164.983,1.857Z" transform="translate(29.516 -5.44)" fill="#fefefe"/>
      <path id="Path_5" data-name="Path 5" d="M19.14,10.3H21V6.641c-.437-.218-.874-.382-1.256-.546a11.006,11.006,0,0,0-1.256-.382,10.079,10.079,0,0,0-1.256-.218,11.877,11.877,0,0,0-1.42-.055,10.051,10.051,0,0,0-2.239.273,6.048,6.048,0,0,0-2.021.819,4.076,4.076,0,0,0-1.42,1.474,4.129,4.129,0,0,0-.546,2.239,3.665,3.665,0,0,0,.382,1.8,4.566,4.566,0,0,0,.983,1.256,8.539,8.539,0,0,0,1.365.928,13.923,13.923,0,0,0,1.584.71c.546.218,1.092.437,1.584.6.546.218.983.437,1.42.655a3.06,3.06,0,0,1,.983.874,1.765,1.765,0,0,1,.382,1.2,1.943,1.943,0,0,1-.273,1.038,2.045,2.045,0,0,1-.71.655,2.61,2.61,0,0,1-.983.328,6.722,6.722,0,0,1-1.092.109,11.017,11.017,0,0,1-2.949-.437c-.983-.328-1.911-.655-2.84-1.038v3.277a10.424,10.424,0,0,0,2.4.819,18.2,18.2,0,0,0,3.058.273,9.41,9.41,0,0,0,2.4-.328,7.449,7.449,0,0,0,2.239-.928A6.047,6.047,0,0,0,21.216,20.4a4.094,4.094,0,0,0,.655-2.348,3.585,3.585,0,0,0-.382-1.748A4.587,4.587,0,0,0,20.506,15a6.569,6.569,0,0,0-1.42-.983c-.546-.273-1.092-.546-1.638-.765l-1.638-.655c-.546-.218-.983-.437-1.42-.655a2.93,2.93,0,0,1-.983-.765,1.549,1.549,0,0,1-.382-.928,1.913,1.913,0,0,1,.928-1.638,4.724,4.724,0,0,1,.928-.382,6.017,6.017,0,0,1,.983-.109h.6l.491.055a1.6,1.6,0,0,1,.491.109l.546.164.983,1.857Z" transform="translate(41.694 -5.44)" fill="#fefefe"/>
      <path id="Path_6" data-name="Path 6" d="M13.262,6.344v3.6h1.911l.983-1.638A12.224,12.224,0,0,1,19,8.037a10.605,10.605,0,0,1,1.311.109,3.545,3.545,0,0,1,1.147.382,2.944,2.944,0,0,1,.874.765,2.262,2.262,0,0,1,.328,1.256v6.881h0a2.594,2.594,0,0,1-.328,1.311,3.768,3.768,0,0,1-.874.983,4.948,4.948,0,0,1-1.2.6,6.194,6.194,0,0,1-1.365.164c-1.966,0-2.949-.983-2.949-2.894a2.975,2.975,0,0,1,.437-1.693,3.563,3.563,0,0,1,1.147-.874,5.174,5.174,0,0,1,1.584-.382c.6-.055,1.147-.055,1.693-.055h.055V12.3h-.382a16.972,16.972,0,0,0-2.348.164,14.816,14.816,0,0,0-2.239.491,6.91,6.91,0,0,0-1.911.928,4.637,4.637,0,0,0-1.311,1.584,5.145,5.145,0,0,0-.491,2.348,6.589,6.589,0,0,0,.437,2.457,4.7,4.7,0,0,0,1.256,1.638,5.284,5.284,0,0,0,1.911.983,8.368,8.368,0,0,0,2.457.328,6.851,6.851,0,0,0,2.785-.546,5.8,5.8,0,0,0,1.693-1.147v1.311h3.6V11.095a6.331,6.331,0,0,0-.491-2.676A5.007,5.007,0,0,0,24.4,6.671a5.389,5.389,0,0,0-2.13-.928A13.878,13.878,0,0,0,19.6,5.47a19.95,19.95,0,0,0-6.171,1.038Z" transform="translate(53.962 -5.306)" fill="#fefefe"/>
      <path id="Path_7" data-name="Path 7" d="M18.75,5.45H15.2V18.283a8.2,8.2,0,0,0,.273,2.184A3.521,3.521,0,0,0,16.347,22a3.81,3.81,0,0,0,1.584.928,7.381,7.381,0,0,0,2.348.328,11.939,11.939,0,0,0,1.966-.164,4.625,4.625,0,0,0,.928-.218V20.14a8.839,8.839,0,0,1-2.4.382,2.259,2.259,0,0,1-1.147-.218,1.579,1.579,0,0,1-.6-.6,4.613,4.613,0,0,1-.273-.928c0-.382-.055-.765-.055-1.147V5.559Z" transform="translate(67.479 -5.395)" fill="#fefefe"/>
      <path id="Path_8" data-name="Path 8" d="M17.13,8.446l.983.6v9.229h3.55V6.535L17.185,6.48Z" transform="translate(76.088 -0.801)" fill="#fefefe"/>
      <path id="Path_9" data-name="Path 9" d="M17.229,7.679a1.824,1.824,0,0,0,.164.819,2.078,2.078,0,0,0,.491.71,1.927,1.927,0,0,0,.71.437,2.13,2.13,0,0,0,1.638,0,3.1,3.1,0,0,0,.71-.437,2.078,2.078,0,0,0,.491-.71,2.191,2.191,0,0,0,.164-.819,2.264,2.264,0,0,0-.164-.874,2.078,2.078,0,0,0-.491-.71,3.285,3.285,0,0,0-.71-.491,2.412,2.412,0,0,0-1.747,0,2.078,2.078,0,0,0-.71.491,2.078,2.078,0,0,0-.491.71,2.264,2.264,0,0,0-.164.874Z" transform="translate(76.044 -5.44)" fill="#fefefe"/>
      <path id="Path_10" data-name="Path 10" d="M15.03,7.416l.983.546v9.284h3.5V11.129h2.84V8.235h-2.84V5.45H15.03Z" transform="translate(66.72 -5.395)" fill="#fefefe"/>
      <path id="Path_11" data-name="Path 11" d="M8.9,15.245h8.847V13.061a11.591,11.591,0,0,0-.382-3.222,6.713,6.713,0,0,0-1.256-2.4,5.034,5.034,0,0,0-2.239-1.474A9.852,9.852,0,0,0,10.59,5.47,7.063,7.063,0,0,0,7.2,6.18a6.135,6.135,0,0,0-2.13,1.966,7.768,7.768,0,0,0-1.147,2.84A16.957,16.957,0,0,0,3.6,14.371a14.479,14.479,0,0,0,.437,3.6A7.387,7.387,0,0,0,5.4,20.761a6.094,6.094,0,0,0,2.4,1.747,8.856,8.856,0,0,0,3.6.655,16.9,16.9,0,0,0,2.949-.273,16.481,16.481,0,0,0,2.785-.874l-1.092-2.4a14.432,14.432,0,0,1-2.184.655,10.88,10.88,0,0,1-2.294.218,6.136,6.136,0,0,1-2.184-.328,3.362,3.362,0,0,1-1.365-1.038,3.7,3.7,0,0,1-.655-1.638,19.839,19.839,0,0,1-.055-6.225A4.521,4.521,0,0,1,7.86,9.675,3.154,3.154,0,0,1,8.952,8.528a3.733,3.733,0,0,1,1.857-.437,3.838,3.838,0,0,1,1.911.382,3.476,3.476,0,0,1,1.092,1.092,4.521,4.521,0,0,1,.546,1.584c.109.6.109,1.256.164,1.911H8.9v2.184Z" transform="translate(15.732 -5.306)" fill="#fefefe"/>
    </g>
  </g>
  <g id="Group_274" data-name="Group 274" transform="translate(34.732)">
    <g id="Group_145" data-name="Group 145">
      <path id="Path_2" data-name="Path 2" d="M8.386.4A20.693,20.693,0,0,1,15.922.292a10.359,10.359,0,0,1,4.642,2.075A9.8,9.8,0,0,1,25.206.292,21.985,21.985,0,0,1,32.742.4a2.518,2.518,0,0,1,1.42.819,2.484,2.484,0,0,1,.546,1.529V18.586a1.927,1.927,0,0,1-.164.765,1.736,1.736,0,0,1-1.2.928,1.8,1.8,0,0,1-.765,0,15.6,15.6,0,0,0-6.5-.218,10.837,10.837,0,0,0-4.915,2.348l-.6.491-.6-.491a10.309,10.309,0,0,0-4.915-2.348,16.552,16.552,0,0,0-6.5.218,1.8,1.8,0,0,1-.765,0,1.736,1.736,0,0,1-1.2-.928,1.744,1.744,0,0,1-.164-.765V2.749A2.61,2.61,0,0,1,6.966,1.22,2.467,2.467,0,0,1,8.386.4Zm7.208,1.638a19.886,19.886,0,0,0-6.935.109c-.109,0-.218.109-.328.164a.776.776,0,0,0-.109.328V18.368a17.778,17.778,0,0,1,7.154-.218,12.721,12.721,0,0,1,5.188,2.294,12.407,12.407,0,0,1,5.188-2.294,18.82,18.82,0,0,1,7.154.218V2.64a.585.585,0,0,0-.109-.328.389.389,0,0,0-.328-.164,19.886,19.886,0,0,0-6.935-.109,7.946,7.946,0,0,0-4.314,2.184l-.655.655-.655-.655a8.33,8.33,0,0,0-4.314-2.184Z" transform="translate(-6.42 0.004)" fill="#fefefe"/>
    </g>
    <path id="Path_12" data-name="Path 12" d="M12.27,2.664v8.9L10.905,13.8,9.54,11.565h0v-8.9A5.5,5.5,0,0,1,10.905,2.5,5.2,5.2,0,0,1,12.27,2.664Zm-.437,8.9-.983,1.584-.983-1.584a5.935,5.935,0,0,1,.983-.055A5.935,5.935,0,0,1,11.834,11.565Z" transform="translate(7.498 11.176)" fill="#fefefe" fill-rule="evenodd"/>
    <path id="Path_13" data-name="Path 13" d="M15.144,4.545c.109,0,3.386,4.587-1.966,2.075-3-1.42-6.717-3.331-1.857,1.147C6.9,4.818,8.208,3.452,12.359,5.528c6.608,3.386,2.239-.6,2.84-1.038Z" transform="translate(3.15 20.053)" fill="#fefefe" fill-rule="evenodd"/>
  </g>
</svg>
