<svg xmlns="http://www.w3.org/2000/svg" xmlns:xlink="http://www.w3.org/1999/xlink" width="462.221" height="1062.001" viewBox="0 0 462.221 1062.001">
  <defs>
    <linearGradient id="linear-gradient" x1="0.5" x2="0.5" y2="1" gradientUnits="objectBoundingBox">
      <stop offset="0" stop-color="#6b1835"/>
      <stop offset="1" stop-color="#fff" stop-opacity="0"/>
    </linearGradient>
    <clipPath id="clip-path">
      <path id="Path_66" data-name="Path 66" d="M181.857,384.825,69.115,497.582C-19.757,586.465,101.9,742.626,54.4,844.409a3.327,3.327,0,0,0,5.367,3.765L172.6,735.335c88.58-88.588-33.1-244.72,14.628-346.742a3.3,3.3,0,0,0-1.124-4.157,3.315,3.315,0,0,0-4.245.389" transform="translate(-35.64 -383.844)" fill="url(#linear-gradient)"/>
    </clipPath>
    <clipPath id="clip-path-2">
      <path id="Path_67" data-name="Path 67" d="M182.633,381.593,64.861,499.377c-70.033,70.035,43.994,212.216,150.864,319.1L354.9,677.515c-95.007-95.017-194.969-217.232-166.789-292.4a3.328,3.328,0,0,0-5.474-3.526" transform="translate(-43.313 -380.607)" fill="url(#linear-gradient)"/>
    </clipPath>
    <clipPath id="clip-path-3">
      <path id="Path_68" data-name="Path 68" d="M243.376,168.157,126.112,285.433c-82.951,82.96,108.236,187.289,172.656,331.638,37.716,84.515-11.824,214-117.571,319.749L365.637,752.37C645.116,472.861,204.3,297.989,248.852,171.62a3.281,3.281,0,0,0-1.39-3.955,3.347,3.347,0,0,0-1.741-.493,3.308,3.308,0,0,0-2.346.984" transform="translate(-105.599 -167.173)" fill="url(#linear-gradient)"/>
    </clipPath>
    <clipPath id="clip-path-4">
      <path id="Path_69" data-name="Path 69" d="M103.352,112.816c22.955,22.955,106.262,89.13,91.121,132.851a1.765,1.765,0,0,0,2.914,1.831L298.793,146.082C341.024,103.851,241.579,25.419,216.156,0Z" transform="translate(-103.352)" fill="url(#linear-gradient)"/>
    </clipPath>
  </defs>
  <g id="Component_33_2" data-name="Component 33 – 2" opacity="0.09">
    <g id="Group_242" data-name="Group 242" transform="translate(0 596.685)">
      <g id="Group_241" data-name="Group 241" clip-path="url(#clip-path)">
        <rect id="Rectangle_6053" data-name="Rectangle 6053" width="280.934" height="465.641" transform="translate(-55.397 0)" fill="url(#linear-gradient)"/>
      </g>
    </g>
    <g id="Group_244" data-name="Group 244" transform="translate(11.927 591.653)">
      <g id="Group_243" data-name="Group 243" clip-path="url(#clip-path-2)">
        <rect id="Rectangle_6054" data-name="Rectangle 6054" width="566.279" height="562.013" transform="matrix(0.679, -0.734, 0.734, 0.679, -266.739, 235.899)" fill="url(#linear-gradient)"/>
      </g>
    </g>
    <g id="Group_246" data-name="Group 246" transform="translate(108.741 259.87)">
      <g id="Group_245" data-name="Group 245" clip-path="url(#clip-path-3)">
        <rect id="Rectangle_6055" data-name="Rectangle 6055" width="924.439" height="820.974" transform="translate(-300.835 686.893) rotate(-70.858)" fill="url(#linear-gradient)"/>
      </g>
    </g>
    <g id="Group_248" data-name="Group 248" transform="translate(105.249)">
      <g id="Group_247" data-name="Group 247" clip-path="url(#clip-path-4)">
        <rect id="Rectangle_6056" data-name="Rectangle 6056" width="340.599" height="342.319" transform="matrix(0.784, -0.621, 0.621, 0.784, -120.77, 95.617)" fill="url(#linear-gradient)"/>
      </g>
    </g>
  </g>
</svg>
