<svg xmlns="http://www.w3.org/2000/svg" xmlns:xlink="http://www.w3.org/1999/xlink" width="360" height="350" viewBox="0 0 360 350">
  <defs>
    <clipPath id="clip-path">
      <rect id="Rectangle_6194" data-name="Rectangle 6194" width="360" height="350" rx="15" fill="#fff"/>
    </clipPath>
    <clipPath id="clip-path-2">
      <rect width="78.556" height="320" fill="none"/>
    </clipPath>
    <clipPath id="clip-path-3">
      <rect id="Rectangle_8803" data-name="Rectangle 8803" width="265.021" height="291.872" fill="none"/>
    </clipPath>
  </defs>
  <g id="Mask_Group_52" data-name="Mask Group 52" clip-path="url(#clip-path)">
    <g id="Repeat_Grid_7" data-name="Repeat Grid 7" transform="translate(258.801 15)" clip-path="url(#clip-path-2)">
      <g id="Group_130" data-name="Group 130" transform="translate(-1846.515 115.071)" opacity="0.05">
        <g id="Rectangle_5861" data-name="Rectangle 5861" transform="translate(1876 -115.071) rotate(45)" fill="none" stroke="#000" stroke-width="3">
          <rect width="10" height="10" stroke="none"/>
          <rect x="1.5" y="1.5" width="7" height="7" fill="none"/>
        </g>
        <g id="Rectangle_5864" data-name="Rectangle 5864" transform="translate(1918 -115.071) rotate(45)" fill="none" stroke="#000" stroke-width="3">
          <rect width="10" height="10" stroke="none"/>
          <rect x="1.5" y="1.5" width="7" height="7" fill="none"/>
        </g>
        <g id="Rectangle_5862" data-name="Rectangle 5862" transform="translate(1855 -95.485) rotate(45)" fill="none" stroke="#000" stroke-width="3">
          <rect width="12" height="12" stroke="none"/>
          <rect x="1.5" y="1.5" width="9" height="9" fill="none"/>
        </g>
        <g id="Rectangle_5863" data-name="Rectangle 5863" transform="translate(1897 -95.485) rotate(45)" fill="none" stroke="#000" stroke-width="3">
          <rect width="12" height="12" stroke="none"/>
          <rect x="1.5" y="1.5" width="9" height="9" fill="none"/>
        </g>
      </g>
      <g transform="translate(0 42)">
        <g id="Group_130-2" data-name="Group 130" transform="translate(-1846.515 115.071)" opacity="0.05">
          <g id="Rectangle_5861-2" data-name="Rectangle 5861" transform="translate(1876 -115.071) rotate(45)" fill="none" stroke="#000" stroke-width="3">
            <rect width="10" height="10" stroke="none"/>
            <rect x="1.5" y="1.5" width="7" height="7" fill="none"/>
          </g>
          <g id="Rectangle_5864-2" data-name="Rectangle 5864" transform="translate(1918 -115.071) rotate(45)" fill="none" stroke="#000" stroke-width="3">
            <rect width="10" height="10" stroke="none"/>
            <rect x="1.5" y="1.5" width="7" height="7" fill="none"/>
          </g>
          <g id="Rectangle_5862-2" data-name="Rectangle 5862" transform="translate(1855 -95.485) rotate(45)" fill="none" stroke="#000" stroke-width="3">
            <rect width="12" height="12" stroke="none"/>
            <rect x="1.5" y="1.5" width="9" height="9" fill="none"/>
          </g>
          <g id="Rectangle_5863-2" data-name="Rectangle 5863" transform="translate(1897 -95.485) rotate(45)" fill="none" stroke="#000" stroke-width="3">
            <rect width="12" height="12" stroke="none"/>
            <rect x="1.5" y="1.5" width="9" height="9" fill="none"/>
          </g>
        </g>
      </g>
      <g transform="translate(0 84)">
        <g id="Group_130-3" data-name="Group 130" transform="translate(-1846.515 115.071)" opacity="0.05">
          <g id="Rectangle_5861-3" data-name="Rectangle 5861" transform="translate(1876 -115.071) rotate(45)" fill="none" stroke="#000" stroke-width="3">
            <rect width="10" height="10" stroke="none"/>
            <rect x="1.5" y="1.5" width="7" height="7" fill="none"/>
          </g>
          <g id="Rectangle_5864-3" data-name="Rectangle 5864" transform="translate(1918 -115.071) rotate(45)" fill="none" stroke="#000" stroke-width="3">
            <rect width="10" height="10" stroke="none"/>
            <rect x="1.5" y="1.5" width="7" height="7" fill="none"/>
          </g>
          <g id="Rectangle_5862-3" data-name="Rectangle 5862" transform="translate(1855 -95.485) rotate(45)" fill="none" stroke="#000" stroke-width="3">
            <rect width="12" height="12" stroke="none"/>
            <rect x="1.5" y="1.5" width="9" height="9" fill="none"/>
          </g>
          <g id="Rectangle_5863-3" data-name="Rectangle 5863" transform="translate(1897 -95.485) rotate(45)" fill="none" stroke="#000" stroke-width="3">
            <rect width="12" height="12" stroke="none"/>
            <rect x="1.5" y="1.5" width="9" height="9" fill="none"/>
          </g>
        </g>
      </g>
      <g transform="translate(0 126)">
        <g id="Group_130-4" data-name="Group 130" transform="translate(-1846.515 115.071)" opacity="0.05">
          <g id="Rectangle_5861-4" data-name="Rectangle 5861" transform="translate(1876 -115.071) rotate(45)" fill="none" stroke="#000" stroke-width="3">
            <rect width="10" height="10" stroke="none"/>
            <rect x="1.5" y="1.5" width="7" height="7" fill="none"/>
          </g>
          <g id="Rectangle_5864-4" data-name="Rectangle 5864" transform="translate(1918 -115.071) rotate(45)" fill="none" stroke="#000" stroke-width="3">
            <rect width="10" height="10" stroke="none"/>
            <rect x="1.5" y="1.5" width="7" height="7" fill="none"/>
          </g>
          <g id="Rectangle_5862-4" data-name="Rectangle 5862" transform="translate(1855 -95.485) rotate(45)" fill="none" stroke="#000" stroke-width="3">
            <rect width="12" height="12" stroke="none"/>
            <rect x="1.5" y="1.5" width="9" height="9" fill="none"/>
          </g>
          <g id="Rectangle_5863-4" data-name="Rectangle 5863" transform="translate(1897 -95.485) rotate(45)" fill="none" stroke="#000" stroke-width="3">
            <rect width="12" height="12" stroke="none"/>
            <rect x="1.5" y="1.5" width="9" height="9" fill="none"/>
          </g>
        </g>
      </g>
      <g transform="translate(0 168)">
        <g id="Group_130-5" data-name="Group 130" transform="translate(-1846.515 115.071)" opacity="0.05">
          <g id="Rectangle_5861-5" data-name="Rectangle 5861" transform="translate(1876 -115.071) rotate(45)" fill="none" stroke="#000" stroke-width="3">
            <rect width="10" height="10" stroke="none"/>
            <rect x="1.5" y="1.5" width="7" height="7" fill="none"/>
          </g>
          <g id="Rectangle_5864-5" data-name="Rectangle 5864" transform="translate(1918 -115.071) rotate(45)" fill="none" stroke="#000" stroke-width="3">
            <rect width="10" height="10" stroke="none"/>
            <rect x="1.5" y="1.5" width="7" height="7" fill="none"/>
          </g>
          <g id="Rectangle_5862-5" data-name="Rectangle 5862" transform="translate(1855 -95.485) rotate(45)" fill="none" stroke="#000" stroke-width="3">
            <rect width="12" height="12" stroke="none"/>
            <rect x="1.5" y="1.5" width="9" height="9" fill="none"/>
          </g>
          <g id="Rectangle_5863-5" data-name="Rectangle 5863" transform="translate(1897 -95.485) rotate(45)" fill="none" stroke="#000" stroke-width="3">
            <rect width="12" height="12" stroke="none"/>
            <rect x="1.5" y="1.5" width="9" height="9" fill="none"/>
          </g>
        </g>
      </g>
      <g transform="translate(0 210)">
        <g id="Group_130-6" data-name="Group 130" transform="translate(-1846.515 115.071)" opacity="0.05">
          <g id="Rectangle_5861-6" data-name="Rectangle 5861" transform="translate(1876 -115.071) rotate(45)" fill="none" stroke="#000" stroke-width="3">
            <rect width="10" height="10" stroke="none"/>
            <rect x="1.5" y="1.5" width="7" height="7" fill="none"/>
          </g>
          <g id="Rectangle_5864-6" data-name="Rectangle 5864" transform="translate(1918 -115.071) rotate(45)" fill="none" stroke="#000" stroke-width="3">
            <rect width="10" height="10" stroke="none"/>
            <rect x="1.5" y="1.5" width="7" height="7" fill="none"/>
          </g>
          <g id="Rectangle_5862-6" data-name="Rectangle 5862" transform="translate(1855 -95.485) rotate(45)" fill="none" stroke="#000" stroke-width="3">
            <rect width="12" height="12" stroke="none"/>
            <rect x="1.5" y="1.5" width="9" height="9" fill="none"/>
          </g>
          <g id="Rectangle_5863-6" data-name="Rectangle 5863" transform="translate(1897 -95.485) rotate(45)" fill="none" stroke="#000" stroke-width="3">
            <rect width="12" height="12" stroke="none"/>
            <rect x="1.5" y="1.5" width="9" height="9" fill="none"/>
          </g>
        </g>
      </g>
      <g transform="translate(0 252)">
        <g id="Group_130-7" data-name="Group 130" transform="translate(-1846.515 115.071)" opacity="0.05">
          <g id="Rectangle_5861-7" data-name="Rectangle 5861" transform="translate(1876 -115.071) rotate(45)" fill="none" stroke="#000" stroke-width="3">
            <rect width="10" height="10" stroke="none"/>
            <rect x="1.5" y="1.5" width="7" height="7" fill="none"/>
          </g>
          <g id="Rectangle_5864-7" data-name="Rectangle 5864" transform="translate(1918 -115.071) rotate(45)" fill="none" stroke="#000" stroke-width="3">
            <rect width="10" height="10" stroke="none"/>
            <rect x="1.5" y="1.5" width="7" height="7" fill="none"/>
          </g>
          <g id="Rectangle_5862-7" data-name="Rectangle 5862" transform="translate(1855 -95.485) rotate(45)" fill="none" stroke="#000" stroke-width="3">
            <rect width="12" height="12" stroke="none"/>
            <rect x="1.5" y="1.5" width="9" height="9" fill="none"/>
          </g>
          <g id="Rectangle_5863-7" data-name="Rectangle 5863" transform="translate(1897 -95.485) rotate(45)" fill="none" stroke="#000" stroke-width="3">
            <rect width="12" height="12" stroke="none"/>
            <rect x="1.5" y="1.5" width="9" height="9" fill="none"/>
          </g>
        </g>
      </g>
      <g transform="translate(0 294)">
        <g id="Group_130-8" data-name="Group 130" transform="translate(-1846.515 115.071)" opacity="0.05">
          <g id="Rectangle_5861-8" data-name="Rectangle 5861" transform="translate(1876 -115.071) rotate(45)" fill="none" stroke="#000" stroke-width="3">
            <rect width="10" height="10" stroke="none"/>
            <rect x="1.5" y="1.5" width="7" height="7" fill="none"/>
          </g>
          <g id="Rectangle_5864-8" data-name="Rectangle 5864" transform="translate(1918 -115.071) rotate(45)" fill="none" stroke="#000" stroke-width="3">
            <rect width="10" height="10" stroke="none"/>
            <rect x="1.5" y="1.5" width="7" height="7" fill="none"/>
          </g>
          <g id="Rectangle_5862-8" data-name="Rectangle 5862" transform="translate(1855 -95.485) rotate(45)" fill="none" stroke="#000" stroke-width="3">
            <rect width="12" height="12" stroke="none"/>
            <rect x="1.5" y="1.5" width="9" height="9" fill="none"/>
          </g>
          <g id="Rectangle_5863-8" data-name="Rectangle 5863" transform="translate(1897 -95.485) rotate(45)" fill="none" stroke="#000" stroke-width="3">
            <rect width="12" height="12" stroke="none"/>
            <rect x="1.5" y="1.5" width="9" height="9" fill="none"/>
          </g>
        </g>
      </g>
    </g>
    <g id="Group_15206" data-name="Group 15206" transform="translate(185 87)">
      <g id="Group_15205" data-name="Group 15205" clip-path="url(#clip-path-3)">
        <path id="Path_3032" data-name="Path 3032" d="M262.783,258.8l-64.415-36.724,18.452-10.655a6.007,6.007,0,0,0,0-10.4l-99.61-57.51a14,14,0,0,0-14,0L3.6,201.017a6,6,0,0,0,0,10.39l27.95,16.14,71.66,41.38a14,14,0,0,0,14,0l26.109-15.073,64.411,36.724c2.716,1.565,6.822,1.734,9.165.379l44.084-25.452,2.457-1.418a2.716,2.716,0,0,0,1.586-2.3c0-1.038-.758-2.133-2.239-2.989" fill="#eddde3"/>
        <path id="Path_3033" data-name="Path 3033" d="M219.82,138.593a5.945,5.945,0,0,1-3,5.2l-27.95,16.14L117.21,201.3a14,14,0,0,1-14,0l-71.66-41.38L3.6,143.783a6,6,0,0,1,0-10.39l99.61-57.51a14,14,0,0,1,14,0l99.61,57.51a5.945,5.945,0,0,1,3,5.2" fill="#fff"/>
        <path id="Path_3034" data-name="Path 3034" d="M219.82,138.593a5.945,5.945,0,0,1-3,5.2l-27.95,16.14L117.21,201.3a14,14,0,0,1-14,0l-71.66-41.38L3.6,143.783a6,6,0,0,1,0-10.39l99.61-57.51a14,14,0,0,1,14,0l99.61,57.51A5.945,5.945,0,0,1,219.82,138.593Z" fill="none" stroke="#541329" stroke-linecap="round" stroke-linejoin="round" stroke-width="1.2"/>
        <path id="Path_3035" data-name="Path 3035" d="M187.25,107.283V135.6a4.688,4.688,0,0,1-2.36,4.09l-67.6,39.03a14.157,14.157,0,0,1-14.16,0l-67.6-39.03a4.688,4.688,0,0,1-2.36-4.09v-28.32a4.688,4.688,0,0,0,2.36,4.09l67.6,39.02a14.157,14.157,0,0,0,14.16,0l67.6-39.02a4.678,4.678,0,0,0,2.35-4.09Z" fill="#eddde3"/>
        <path id="Path_3036" data-name="Path 3036" d="M187.25,107.283V135.6a4.688,4.688,0,0,1-2.36,4.09l-67.6,39.03a14.157,14.157,0,0,1-14.16,0l-67.6-39.03a4.688,4.688,0,0,1-2.36-4.09v-28.32a4.688,4.688,0,0,0,2.36,4.09l67.6,39.02a14.157,14.157,0,0,0,14.16,0l67.6-39.02a4.678,4.678,0,0,0,2.35-4.09Z" fill="none" stroke="#541329" stroke-linecap="round" stroke-linejoin="round" stroke-width="1.2"/>
        <path id="Path_3037" data-name="Path 3037" d="M187.24,107.283a4.678,4.678,0,0,1-2.35,4.09l-67.6,39.02a14.157,14.157,0,0,1-14.16,0l-67.6-39.02a4.724,4.724,0,0,1,0-8.18l67.6-39.03a14.157,14.157,0,0,1,14.16,0l67.6,39.03a4.678,4.678,0,0,1,2.35,4.09" fill="#fff"/>
        <path id="Path_3038" data-name="Path 3038" d="M187.24,107.283a4.678,4.678,0,0,1-2.35,4.09l-67.6,39.02a14.157,14.157,0,0,1-14.16,0l-67.6-39.02a4.724,4.724,0,0,1,0-8.18l67.6-39.03a14.157,14.157,0,0,1,14.16,0l67.6,39.03A4.678,4.678,0,0,1,187.24,107.283Z" fill="none" stroke="#541329" stroke-linecap="round" stroke-linejoin="round" stroke-width="1.2"/>
        <line id="Line_41" data-name="Line 41" y1="14.501" x2="25.117" transform="translate(152.076 130.341)" fill="none" stroke="#541329" stroke-linecap="round" stroke-linejoin="round" stroke-width="1.2"/>
        <line id="Line_42" data-name="Line 42" y1="4.738" x2="8.207" transform="translate(132.389 151.47)" fill="none" stroke="#541329" stroke-linecap="round" stroke-linejoin="round" stroke-width="1.2"/>
        <path id="Path_3039" data-name="Path 3039" d="M48.489,133.573c0,1.6-.973,2.336-2.173,1.643a5.2,5.2,0,0,1-2.173-4.152c0-1.6.973-2.336,2.173-1.643a5.2,5.2,0,0,1,2.173,4.152" fill="#541329"/>
        <path id="Path_3040" data-name="Path 3040" d="M57.835,138.97c0,1.6-.973,2.336-2.173,1.643a5.2,5.2,0,0,1-2.173-4.152c0-1.6.973-2.336,2.173-1.643a5.2,5.2,0,0,1,2.173,4.152" fill="#541329"/>
        <path id="Path_3041" data-name="Path 3041" d="M67.18,144.367c0,1.6-.973,2.336-2.173,1.643a5.2,5.2,0,0,1-2.173-4.152c0-1.6.973-2.336,2.173-1.643a5.2,5.2,0,0,1,2.173,4.152" fill="#541329"/>
        <path id="Path_3042" data-name="Path 3042" d="M144.947,113.676a23.026,23.026,0,0,1-8.966,8.49c-14.232,8.218-37.322,8.218-51.553,0a23.121,23.121,0,0,1-8.967-8.49c-3.986-7.266-.993-15.524,8.967-21.28,14.231-8.218,37.321-8.218,51.553,0,9.973,5.756,12.966,14.014,8.966,21.28" fill="#a65672"/>
        <path id="Path_3043" data-name="Path 3043" d="M144.947,113.676a23.026,23.026,0,0,1-8.966,8.49c-14.232,8.218-37.322,8.218-51.553,0a23.121,23.121,0,0,1-8.967-8.49c-3.986-7.266-.993-15.524,8.967-21.28,14.231-8.218,37.321-8.218,51.553,0C145.954,98.152,148.947,106.41,144.947,113.676Z" fill="none" stroke="#541329" stroke-linecap="round" stroke-linejoin="round" stroke-width="1.2"/>
        <path id="Path_3044" data-name="Path 3044" d="M144.947,113.676a23.026,23.026,0,0,1-8.966,8.49c-14.232,8.218-37.322,8.218-51.553,0a23.121,23.121,0,0,1-8.967-8.49,23.121,23.121,0,0,1,8.967-8.49c14.231-8.218,37.321-8.218,51.553,0a23.026,23.026,0,0,1,8.966,8.49" fill="#881e43"/>
        <path id="Path_3045" data-name="Path 3045" d="M144.947,113.676a23.026,23.026,0,0,1-8.966,8.49c-14.232,8.218-37.322,8.218-51.553,0a23.121,23.121,0,0,1-8.967-8.49,23.121,23.121,0,0,1,8.967-8.49c14.231-8.218,37.321-8.218,51.553,0A23.026,23.026,0,0,1,144.947,113.676Z" fill="none" stroke="#541329" stroke-linecap="round" stroke-linejoin="round" stroke-width="1.2"/>
        <path id="Path_3046" data-name="Path 3046" d="M160.27,43.421,142.12,53.9a36.471,36.471,0,0,1-7.62-3.37c-8.53-4.93-16.29-13.15-22.14-22.67-4.16-6.76-10.5-10.42-14.65-8.46a18.523,18.523,0,0,1-10.85,1.32,32.952,32.952,0,0,1-11.31-4.23,51.18,51.18,0,0,1-7.61-5.41L86.09.6a51.18,51.18,0,0,0,7.61,5.41c8.53,4.93,16.31,5.67,22.16,2.91,4.15-1.96,10.49,1.7,14.65,8.46,5.85,9.52,13.62,17.74,22.15,22.67a36.4,36.4,0,0,0,7.61,3.37" fill="#a65672"/>
        <path id="Path_3047" data-name="Path 3047" d="M160.27,43.421,142.12,53.9a36.471,36.471,0,0,1-7.62-3.37c-8.53-4.93-16.29-13.15-22.14-22.67-4.16-6.76-10.5-10.42-14.65-8.46a18.523,18.523,0,0,1-10.85,1.32,32.952,32.952,0,0,1-11.31-4.23,51.18,51.18,0,0,1-7.61-5.41L86.09.6a51.18,51.18,0,0,0,7.61,5.41c8.53,4.93,16.31,5.67,22.16,2.91,4.15-1.96,10.49,1.7,14.65,8.46,5.85,9.52,13.62,17.74,22.15,22.67A36.4,36.4,0,0,0,160.27,43.421Z" fill="none" stroke="#541329" stroke-linecap="round" stroke-linejoin="round" stroke-width="1.2"/>
        <path id="Path_3048" data-name="Path 3048" d="M160.46,49.651c0,28.02-16.56,63.81-55.44,61.17a34.808,34.808,0,0,0,24.72-11.34c7.93-8.66,12.57-22.04,12.57-39.35,0-2.06-.07-4.14-.19-6.23l18.15-10.48c.12,2.09.19,4.17.19,6.23" fill="#881e43"/>
        <path id="Path_3049" data-name="Path 3049" d="M160.46,49.651c0,28.02-16.56,63.81-55.44,61.17a34.808,34.808,0,0,0,24.72-11.34c7.93-8.66,12.57-22.04,12.57-39.35,0-2.06-.07-4.14-.19-6.23l18.15-10.48C160.39,45.511,160.46,47.591,160.46,49.651Z" fill="none" stroke="#541329" stroke-linecap="round" stroke-linejoin="round" stroke-width="1.2"/>
        <path id="Path_3050" data-name="Path 3050" d="M142.31,60.131c0,17.31-4.64,30.69-12.57,39.35a34.808,34.808,0,0,1-24.72,11.34l-.12-.15c-22.13-26.68-37.15-62.44-37.15-93.58,0-2.06.07-4.06.19-6.01a51.18,51.18,0,0,0,7.61,5.41,32.952,32.952,0,0,0,11.31,4.23A18.523,18.523,0,0,0,97.71,19.4c4.15-1.96,10.49,1.7,14.65,8.46,5.85,9.52,13.61,17.74,22.14,22.67a36.471,36.471,0,0,0,7.62,3.37c.12,2.09.19,4.17.19,6.23" fill="#fff"/>
        <path id="Path_3051" data-name="Path 3051" d="M142.31,60.131c0,17.31-4.64,30.69-12.57,39.35a34.808,34.808,0,0,1-24.72,11.34l-.12-.15c-22.13-26.68-37.15-62.44-37.15-93.58,0-2.06.07-4.06.19-6.01a51.18,51.18,0,0,0,7.61,5.41,32.952,32.952,0,0,0,11.31,4.23A18.523,18.523,0,0,0,97.71,19.4c4.15-1.96,10.49,1.7,14.65,8.46,5.85,9.52,13.61,17.74,22.14,22.67a36.471,36.471,0,0,0,7.62,3.37C142.24,55.991,142.31,58.071,142.31,60.131Z" fill="none" stroke="#541329" stroke-linecap="round" stroke-linejoin="round" stroke-width="1.2"/>
        <path id="Path_3052" data-name="Path 3052" d="M105.024,99.205C88.441,77.29,77.883,50.555,76.552,27.054c10.011,5.5,19.556,6.614,26.978,3.11a1.65,1.65,0,0,1,1.5.195,4.371,4.371,0,0,1,1.5,1.538C113.951,43.97,123.493,53.88,133.5,59.935c-1.332,21.964-11.893,36.507-28.479,39.27" fill="#eddde3"/>
        <path id="Path_3053" data-name="Path 3053" d="M105.024,99.205C88.441,77.29,77.883,50.555,76.552,27.054c10.011,5.5,19.556,6.614,26.978,3.11a1.65,1.65,0,0,1,1.5.195,4.371,4.371,0,0,1,1.5,1.538C113.951,43.97,123.493,53.88,133.5,59.935,132.171,81.9,121.61,96.442,105.024,99.205Z" fill="none" stroke="#541329" stroke-linecap="round" stroke-linejoin="round" stroke-width="1.2"/>
        <path id="Path_3054" data-name="Path 3054" d="M102.1,74.294a7.054,7.054,0,0,1-2.449-2.586L93.032,60.241c-1.353-2.343-1.353-4.876,0-5.656s3.546.485,4.9,2.828l4.172,7.225,10.023-5.787c1.353-.781,3.546.486,4.9,2.829s1.353,4.876,0,5.656l-12.472,7.2a2.449,2.449,0,0,1-2.45-.242" fill="#a65672"/>
        <path id="Path_3055" data-name="Path 3055" d="M102.1,74.294a7.054,7.054,0,0,1-2.449-2.586L93.032,60.241c-1.353-2.343-1.353-4.876,0-5.656s3.546.485,4.9,2.828l4.172,7.225,10.023-5.787c1.353-.781,3.546.486,4.9,2.829s1.353,4.876,0,5.656l-12.472,7.2A2.449,2.449,0,0,1,102.1,74.294Z" fill="none" stroke="#541329" stroke-linecap="round" stroke-linejoin="round" stroke-width="1.2"/>
        <path id="Path_3056" data-name="Path 3056" d="M219.82,138.593v42.67a5.93,5.93,0,0,1-3,5.19l-99.61,57.51a14,14,0,0,1-14,0L3.6,186.453a5.93,5.93,0,0,1-3-5.19v-42.67a5.93,5.93,0,0,0,3,5.19l27.95,16.14,71.66,41.38a14,14,0,0,0,14,0l71.66-41.37,27.95-16.14a5.945,5.945,0,0,0,3-5.2" fill="#eddde3"/>
        <path id="Path_3057" data-name="Path 3057" d="M219.82,138.593v42.67a5.93,5.93,0,0,1-3,5.19l-99.61,57.51a14,14,0,0,1-14,0L3.6,186.453a5.93,5.93,0,0,1-3-5.19v-42.67a5.93,5.93,0,0,0,3,5.19l27.95,16.14,71.66,41.38a14,14,0,0,0,14,0l71.66-41.37,27.95-16.14A5.945,5.945,0,0,0,219.82,138.593Z" fill="none" stroke="#541329" stroke-linecap="round" stroke-linejoin="round" stroke-width="1.2"/>
        <path id="Path_3058" data-name="Path 3058" d="M60.475,176.625v18.427l-8.1,4.679V214.61" fill="none" stroke="#541329" stroke-linecap="round" stroke-linejoin="round" stroke-width="1.2"/>
        <path id="Path_3059" data-name="Path 3059" d="M73.526,184.162v19.057l9.808,16.988v12.281" fill="none" stroke="#541329" stroke-linecap="round" stroke-linejoin="round" stroke-width="1.2"/>
        <line id="Line_43" data-name="Line 43" y1="8.76" transform="translate(64.634 212.931)" fill="#fff"/>
        <line id="Line_44" data-name="Line 44" y1="8.76" transform="translate(64.634 212.931)" fill="none" stroke="#541329" stroke-linecap="round" stroke-linejoin="round" stroke-width="1.2"/>
        <line id="Line_45" data-name="Line 45" y1="17.195" transform="translate(46.293 168.436)" fill="#fff"/>
        <line id="Line_46" data-name="Line 46" y1="17.195" transform="translate(46.293 168.436)" fill="none" stroke="#541329" stroke-linecap="round" stroke-linejoin="round" stroke-width="1.2"/>
        <path id="Path_3060" data-name="Path 3060" d="M28.195,200.653v-8.887l5.871-3.39v-12.61L27.99,165.242v-7.375" fill="none" stroke="#541329" stroke-linecap="round" stroke-linejoin="round" stroke-width="1.2"/>
        <path id="Path_3061" data-name="Path 3061" d="M61.6,207.674a6.7,6.7,0,0,0,3.031,5.249c1.674.967,3.03.183,3.03-1.749a6.7,6.7,0,0,0-3.03-5.25C62.96,204.958,61.6,205.741,61.6,207.674Z" fill="none" stroke="#541329" stroke-linecap="round" stroke-linejoin="round" stroke-width="1.2"/>
        <path id="Path_3062" data-name="Path 3062" d="M43.262,187.38a6.7,6.7,0,0,0,3.031,5.249c1.673.967,3.03.183,3.03-1.749a6.7,6.7,0,0,0-3.03-5.25C44.619,184.664,43.262,185.447,43.262,187.38Z" fill="none" stroke="#541329" stroke-linecap="round" stroke-linejoin="round" stroke-width="1.2"/>
        <path id="Path_3063" data-name="Path 3063" d="M198.181,187.342,136.5,222.867a1.806,1.806,0,0,1-2.708-1.564v-16.31a4.816,4.816,0,0,1,2.407-4.17L197.88,165.3a1.806,1.806,0,0,1,2.708,1.564v16.31a4.814,4.814,0,0,1-2.407,4.17" fill="#881e43"/>
        <path id="Path_3064" data-name="Path 3064" d="M198.181,187.342,136.5,222.867a1.806,1.806,0,0,1-2.708-1.564v-16.31a4.816,4.816,0,0,1,2.407-4.17L197.88,165.3a1.806,1.806,0,0,1,2.708,1.564v16.31A4.814,4.814,0,0,1,198.181,187.342Z" fill="none" stroke="#541329" stroke-linecap="round" stroke-linejoin="round" stroke-width="1.2"/>
        <path id="Path_3065" data-name="Path 3065" d="M264.175,217.932a2.716,2.716,0,0,1-1.586,2.3l-2.456,1.417L216.049,247.1c-2.344,1.354-6.449,1.186-9.165-.379l-62.246-35.937-1.8-1.038c-1.488-.864-2.246-1.958-2.246-3a2.727,2.727,0,0,1,1.586-2.3l46.541-26.87c2.35-1.354,6.456-1.186,9.164.386l64.049,36.976c1.481.856,2.239,1.95,2.239,2.989" fill="#a65672"/>
        <path id="Path_3066" data-name="Path 3066" d="M264.175,217.932a2.716,2.716,0,0,1-1.586,2.3l-2.456,1.417L216.049,247.1c-2.344,1.354-6.449,1.186-9.165-.379l-62.246-35.937-1.8-1.038c-1.488-.864-2.246-1.958-2.246-3a2.727,2.727,0,0,1,1.586-2.3l46.541-26.87c2.35-1.354,6.456-1.186,9.164.386l64.049,36.976C263.417,215.8,264.175,216.893,264.175,217.932Z" fill="none" stroke="#541329" stroke-linecap="round" stroke-linejoin="round" stroke-width="1.2"/>
        <path id="Path_3067" data-name="Path 3067" d="M170.02,203.544l26.367-15.223c1.294-.747,1.132-2.052-.362-2.915a5.609,5.609,0,0,0-5.048-.209L164.609,200.42c-1.294.747-1.131,2.052.363,2.915a5.613,5.613,0,0,0,5.048.209" fill="#fff"/>
        <path id="Path_3068" data-name="Path 3068" d="M170.02,203.544l26.367-15.223c1.294-.747,1.132-2.052-.362-2.915a5.609,5.609,0,0,0-5.048-.209L164.609,200.42c-1.294.747-1.131,2.052.363,2.915A5.613,5.613,0,0,0,170.02,203.544Z" fill="none" stroke="#541329" stroke-linecap="round" stroke-linejoin="round" stroke-width="1.2"/>
        <path id="Path_3069" data-name="Path 3069" d="M172.138,214.409l34.719-20.045c1.294-.747,1.132-2.052-.363-2.915a5.613,5.613,0,0,0-5.048-.209l-34.719,20.045c-1.294.747-1.131,2.052.363,2.915a5.613,5.613,0,0,0,5.048.209" fill="#fff"/>
        <path id="Path_3070" data-name="Path 3070" d="M172.138,214.409l34.719-20.045c1.294-.747,1.132-2.052-.363-2.915a5.613,5.613,0,0,0-5.048-.209l-34.719,20.045c-1.294.747-1.131,2.052.363,2.915A5.613,5.613,0,0,0,172.138,214.409Z" fill="none" stroke="#541329" stroke-linecap="round" stroke-linejoin="round" stroke-width="1.2"/>
        <path id="Path_3071" data-name="Path 3071" d="M200.956,209.859l16.369-9.451c1.294-.747,1.132-2.052-.362-2.914a5.612,5.612,0,0,0-5.049-.21l-16.369,9.451c-1.294.747-1.131,2.052.363,2.915a5.612,5.612,0,0,0,5.048.209" fill="#fff"/>
        <path id="Path_3072" data-name="Path 3072" d="M200.956,209.859l16.369-9.451c1.294-.747,1.132-2.052-.362-2.914a5.612,5.612,0,0,0-5.049-.21l-16.369,9.451c-1.294.747-1.131,2.052.363,2.915A5.612,5.612,0,0,0,200.956,209.859Z" fill="none" stroke="#541329" stroke-linecap="round" stroke-linejoin="round" stroke-width="1.2"/>
        <path id="Path_3073" data-name="Path 3073" d="M199.544,222.763l28.249-16.31c1.294-.747,1.132-2.052-.362-2.915a5.613,5.613,0,0,0-5.048-.209l-28.25,16.31c-1.294.747-1.131,2.052.363,2.915a5.613,5.613,0,0,0,5.048.209" fill="#fff"/>
        <path id="Path_3074" data-name="Path 3074" d="M199.544,222.763l28.249-16.31c1.294-.747,1.132-2.052-.362-2.915a5.613,5.613,0,0,0-5.048-.209l-28.25,16.31c-1.294.747-1.131,2.052.363,2.915A5.613,5.613,0,0,0,199.544,222.763Z" fill="none" stroke="#541329" stroke-linecap="round" stroke-linejoin="round" stroke-width="1.2"/>
        <path id="Path_3075" data-name="Path 3075" d="M229.251,230.664a5.716,5.716,0,0,1-2.8.67h-8.821c-2.19,0-3.964-1.024-3.964-2.288s1.774-2.288,3.964-2.288h4.859v-8.233c0-1.264,1.774-2.288,3.964-2.288s3.962,1.024,3.962,2.288v10.521a1.983,1.983,0,0,1-1.16,1.618" fill="#881e43"/>
        <path id="Path_3076" data-name="Path 3076" d="M229.251,230.664a5.716,5.716,0,0,1-2.8.67h-8.821c-2.19,0-3.964-1.024-3.964-2.288s1.774-2.288,3.964-2.288h4.859v-8.233c0-1.264,1.774-2.288,3.964-2.288s3.962,1.024,3.962,2.288v10.521A1.983,1.983,0,0,1,229.251,230.664Z" fill="none" stroke="#541329" stroke-linecap="round" stroke-linejoin="round" stroke-width="1.2"/>
        <path id="Path_3077" data-name="Path 3077" d="M264.175,217.932v7.754a2.714,2.714,0,0,1-1.586,2.295l-46.54,26.87c-2.344,1.362-6.449,1.193-9.165-.379L142.842,217.5c-1.488-.856-2.246-1.951-2.246-3v-7.747c0,1.039.758,2.133,2.246,3l1.8,1.038,62.246,35.937c2.716,1.565,6.821,1.733,9.165.379l44.084-25.453,2.456-1.417a2.716,2.716,0,0,0,1.586-2.3" fill="#881e43"/>
        <path id="Path_3078" data-name="Path 3078" d="M264.175,217.932v7.754a2.714,2.714,0,0,1-1.586,2.295l-46.54,26.87c-2.344,1.362-6.449,1.193-9.165-.379L142.842,217.5c-1.488-.856-2.246-1.951-2.246-3v-7.747c0,1.039.758,2.133,2.246,3l1.8,1.038,62.246,35.937c2.716,1.565,6.821,1.733,9.165.379l44.084-25.453,2.456-1.417A2.716,2.716,0,0,0,264.175,217.932Z" fill="none" stroke="#541329" stroke-linecap="round" stroke-linejoin="round" stroke-width="1.2"/>
      </g>
    </g>
  </g>
</svg>
