<svg id="comment-alt" xmlns="http://www.w3.org/2000/svg" width="16.149" height="15.999" viewBox="0 0 16.149 15.999">
  <path id="Path_3089" data-name="Path 3089" d="M12.448,0H3.7A3.705,3.705,0,0,0,0,3.7V9.757a3.705,3.705,0,0,0,3.7,3.7h.968l2.759,2.307a1.009,1.009,0,0,0,1.295,0l2.759-2.307h.968a3.705,3.705,0,0,0,3.7-3.7V3.7a3.705,3.705,0,0,0-3.7-3.7ZM14.13,9.757a1.682,1.682,0,0,1-1.682,1.682H11.114a1.009,1.009,0,0,0-.647.236l-2.392,2-2.392-2a1.009,1.009,0,0,0-.647-.236H3.7A1.682,1.682,0,0,1,2.019,9.757V3.7A1.682,1.682,0,0,1,3.7,2.019h8.747A1.682,1.682,0,0,1,14.13,3.7Z" fill="#7f7f7f"/>
  <path id="Path_3090" data-name="Path 3090" d="M7.009,8.019H9.028A1.009,1.009,0,0,0,9.028,6H7.009a1.009,1.009,0,1,0,0,2.019Z" transform="translate(-1.963 -1.963)" fill="#7f7f7f"/>
  <path id="Path_3091" data-name="Path 3091" d="M13.065,11H7.009a1.009,1.009,0,1,0,0,2.019h6.056a1.009,1.009,0,1,0,0-2.019Z" transform="translate(-1.963 -3.598)" fill="#7f7f7f"/>
</svg>
