<svg xmlns="http://www.w3.org/2000/svg" xmlns:xlink="http://www.w3.org/1999/xlink" width="149.359" height="68.696" viewBox="0 0 149.359 68.696">
  <defs>
    <clipPath id="clip-path">
      <rect id="Rectangle_8770" data-name="Rectangle 8770" width="149.36" height="68.696" fill="none"/>
    </clipPath>
  </defs>
  <g id="Group_15135" data-name="Group 15135" transform="translate(0 0)">
    <g id="Group_15134" data-name="Group 15134" transform="translate(0 0)" clip-path="url(#clip-path)">
      <path id="Path_2724" data-name="Path 2724" d="M6.94,29.856q4.258.042,5.686.058c.12-.828.208-1.453.252-1.887a9.781,9.781,0,0,0,.265-2.25,4.811,4.811,0,0,0-.056-.646c0-.242,0-.4.006-.475-.075-.757-.13-1.264-.167-1.547-1.343-.086-2.25-.154-2.715-.2q-2.076-.083-2.787-.15c.034-3.474.06-5.776.071-6.929,0-.545.009-.958.013-1.241.013-1.414.066-2.717.16-3.9.092-1.221.139-1.838.139-1.838a7.781,7.781,0,0,1,1.953-.394c1.224-.18,3.3-.4,6.219-.644.034-3.474.058-5.789.068-6.929-.516.034-.909.051-1.181.049-.233,0-2.529.2-6.873.586-4.3.351-6.653.52-7.047.516a.391.391,0,0,0-.355.178,2.477,2.477,0,0,0-.3,1.059C.244,3.83.214,4.639.205,5.7.152,6.77.118,8.263.1,10.2Q.022,17.715.022,23.746q-.1,21.724.255,22.021c.539.56,4.109,1.072,10.69,1.532,2.766.18,4.593.3,5.5.349.036-3.585.06-5.979.071-7.16l-9.7-.1q.08-7.923.1-10.533" transform="translate(0 1.013)" fill="#fff"/>
      <path id="Path_2725" data-name="Path 2725" d="M27.11,9.967c-.156-2.394-.287-3.8-.381-4.223a1.021,1.021,0,0,0-.839-.792q-1.264-.337-5.836-1.273c-3.087-.67-4.721-1-4.892-1-.216,0-.445.347-.7,1.046q-1.133,2.74-3.808,11.828A60.541,60.541,0,0,0,9.061,21.6a53.451,53.451,0,0,0-.531,6.1q-.122,1.685-.169,6.063-.045,4.48.047,6.172c.107,2.736.195,4.8.252,6.165.629.006,1.619-.019,2.952-.068,1.331-.024,2.338-.049,3.006-.079.092-2.041.141-3.389.148-4.056.12-2,.188-3.335.195-4.011l8.493.086c.053.883.148,2.171.276,3.855.118,1.718.212,3.006.276,3.853,1.474.051,2.454.1,2.948.128l.794.009a6.236,6.236,0,0,0,2.377-.184,3.239,3.239,0,0,0,.049-.421c.009-.943-.24-3.853-.749-8.707Q27.442,19,27.11,9.967M21.2,31.68q-1.377-.013-2.375-.077c-2.032-.092-3.389-.152-4.056-.195.094-2.15.165-3.759.212-4.847a50.59,50.59,0,0,1,2.351-13.633,13.669,13.669,0,0,1,1.025-2.734,1.465,1.465,0,0,1,1.166-.411c.772.009,1.159.12,1.157.336,0,.062.233,2.638.714,7.7.12,1.512.3,3.431.518,5.754.184,2.323.312,3.673.381,4.062.225,1.972.357,3.044.391,3.215a1.394,1.394,0,0,1,.049.424c0,.278-.518.417-1.534.406" transform="translate(9.509 3.05)" fill="#fff"/>
      <path id="Path_2726" data-name="Path 2726" d="M36.656,40.694q.035-3.767-.394-8.6-.478-5.6-1.241-6.828c-.507-.83-2.214-2.039-5.117-3.667q-3.889-2.1-3.883-2.79c0-.366.242-2.131.706-5.29.5-3.106.834-5.027,1-5.731.045-.4.967-.605,2.783-.584l2.668.028q.048-5.141.062-6.826Q32.289.4,31.819.391c-.314,0-1.343-.066-3.08-.175q-2.647-.186-3.784-.2A6.568,6.568,0,0,0,23.66.081a1.951,1.951,0,0,0-1.378,1.358,54.945,54.945,0,0,0-1.5,8.185q-.9,6.819-.982,10.114c-.06,1.987-.092,3.32-.1,3.975q7.6,4.3,10.129,5.789c.068,1.373.139,2.434.212,3.142.165,3.113.27,4.88.306,5.286.028,1.179.062,1.951.09,2.3Q26.284,42.111,24.2,43c-.7-.779-1.81-1.955-3.341-3.555-.443.963-.783,1.692-1.018,2.2a7.9,7.9,0,0,0-.98,3.142q-.006.764,2.636,3.247c1.251,1.189,2.073,1.957,2.464,2.327,1.936-.751,3.384-1.322,4.328-1.718a61.824,61.824,0,0,0,6.311-3.07,4.686,4.686,0,0,0,1.671-1.448,10.965,10.965,0,0,0,.379-2.755c0-.3,0-.535.006-.68" transform="translate(21.488 0.018)" fill="#fff"/>
      <path id="Path_2727" data-name="Path 2727" d="M45.919,34.893q.3-12.251.535-17.922c.216-5.412.342-9.017.4-10.833Q42.248,6.09,40.7,6.076q-.144,14.5-.195,19.289c-1.341-.124-2.319-.235-2.954-.323a12.144,12.144,0,0,1-3.307-.618c-2.253-2.4-1.979-17.017-1.8-21.088L27.3,3.284c-1.192,5.791-.259,15.916,1.322,21.193a13.034,13.034,0,0,0,2.084,4.576,6.269,6.269,0,0,0,3.654,1.29c3.673.391,5.519.582,5.56.582.434.045.7.229.764.543a10.393,10.393,0,0,1,.154,2.608c-.015,1.453-.024,2.443-.03,2.959q-2.548.263-3.853.436-4.2.427-5.034.424c-.556-.006-.89.122-1.005.394a8.667,8.667,0,0,0-.205,2.432c-.013,1.414-.024,2.364-.028,2.839l3.908.039c2.443-.015,4.749-.135,6.922-.344,2.214-.25,3.459-.52,3.735-.792.325-.308.543-2.832.672-7.569" transform="translate(30.485 3.742)" fill="#fff"/>
      <path id="Path_2728" data-name="Path 2728" d="M47.173,21.767q.157-5.15.252-7.988c.1-1.9.152-3.078.156-3.553q.019-2.015.088-2.717c4.142.043,15.644.488,17.028.5q.051-5.211.071-6.989l-3.6-.036C58.314.957,46.067.375,41.884.169,39.08.032,37.523,0,37.21,0c-1.425-.013-2.233.139-2.439.451a16.1,16.1,0,0,0-.135,2.422q-.013,1.017-.013,1.3c.064,1.5.086,2.484.081,2.959,1.463.1,2.452.167,2.956.212,1.3.094,2.291.135,2.959.141q-.071,6.876-.148,20.483-.013,13.6-.021,20.35,4.56.048,6.088.062.3-11.767.421-17.691.1-3.831.212-8.927" transform="translate(39.444 0)" fill="#fff"/>
      <path id="Path_2729" data-name="Path 2729" d="M56.043,42.124c.518-.032,1.574-.118,3.149-.246a13.267,13.267,0,0,0,3.374-.475q.01-1.123-2.58-17.4Q57.457,7.778,57.177,7.558q-.17-.058-5.553-1.352-5.442-1.293-5.887-1.412a5.717,5.717,0,0,0-1.294-.175l-.116,0c-.336,0-.569.387-.682,1.174-.086.785-.282,3.288-.584,7.526q-1.534,23.594-1.617,31.866a5.11,5.11,0,0,0,.047,1.123c.15.413,1.271.635,3.371.657.71.009,1.756.017,3.147.032q.035-3.324.133-13.27.837.006,3.485.034l1.352.013c1.269.013,2.024.242,2.24.7a17.789,17.789,0,0,1,.58,4.392c.06.71.143,1.805.246,3.264M51.3,26.674c-.672-.009-1.707-.017-3.089-.032q.039-3.828.154-15.411.331.061,1.294.128a13.373,13.373,0,0,1,1.966.3,8,8,0,0,1,1.005.287q.218.854.988,7.6c.52,4.507.774,6.85.772,7.042a15.641,15.641,0,0,1-3.091.086" transform="translate(47.21 5.26)" fill="#fff"/>
      <path id="Path_2730" data-name="Path 2730" d="M60.643,24.694q1.922-2.833,2.937-4.287,2.083-3.045,5.562-8.9c1.388-2.338,2.293-3.925,2.74-4.747Q67.567,3.252,66.1,2.106C65.367,3.8,64.8,5.073,64.4,5.938c-.92,2.148-1.947,4.313-3.1,6.516-1.189,2.193-1.891,3.3-2.081,3.309a8.348,8.348,0,0,0-.1-1.14c-.051-1.51-.058-3.528-.021-6.037q.045-5.433.049-7.254l-2.606.113a14.951,14.951,0,0,1-3.553-.18,2.516,2.516,0,0,0-.537-.045.754.754,0,0,0-.747.64q-.109.4.075,5.84c.086,2.492.314,8.084.687,16.741q1.085,21.708,1.574,22.087a6.976,6.976,0,0,0,3.142.265q1.832-.08,2.484-.107c-.1-2.907-.171-5.068-.22-6.5-.137-4.105-.066-6.172.205-6.182q.366-.016,3.979,5.532,3.5,5.346,3.8,5.333a16.574,16.574,0,0,0,2.956-1.938A14.077,14.077,0,0,0,73.093,40.8q-.006-.189-6.2-8.187c-3.134-3.93-5.215-6.578-6.251-7.919" transform="translate(58.857 1.39)" fill="#fff"/>
      <path id="Path_2731" data-name="Path 2731" d="M68.925,39.273q.074-7.473.1-9.937c2.837.028,4.736.047,5.686.058.118-.781.205-1.371.248-1.78a8.631,8.631,0,0,0,.265-2.122,4.208,4.208,0,0,0-.053-.61c0-.229,0-.383,0-.447-.075-.717-.131-1.194-.169-1.461-1.341-.079-2.25-.145-2.715-.188-1.382-.053-2.312-.1-2.785-.143.032-3.277.053-5.449.064-6.535.006-.516.011-.9.013-1.172.013-1.333.066-2.563.158-3.675.092-1.153.139-1.733.139-1.733a8,8,0,0,1,1.953-.372c1.224-.169,3.3-.377,6.217-.6q.051-4.916.066-6.535-.773.048-1.181.045-.35,0-6.875.55c-4.3.327-6.651.486-7.044.481a.4.4,0,0,0-.355.167,2.246,2.246,0,0,0-.3,1q-.067.786-.083,2.285c-.049,1.01-.083,2.419-.1,4.248Q62.1,17.88,62.1,23.57q-.083,20.495.265,20.774.812.793,10.692,1.45c2.766.171,4.593.285,5.5.332.034-3.382.058-5.639.068-6.753l-9.706-.1" transform="translate(70.729 2.298)" fill="#fff"/>
      <path id="Path_2732" data-name="Path 2732" d="M55.658,26.4a5.838,5.838,0,0,0-1.4-.128,8.394,8.394,0,0,0-1.577.128c-.971.212-1.527.417-1.66.616a1.749,1.749,0,0,0-.071.631c0,.094.011.317.028.672.036.543.092,2.056.158,4.535a27.729,27.729,0,0,0,.2,3.694.561.561,0,0,0,.518.3.752.752,0,0,0,.443-.141,2.636,2.636,0,0,1,.285-.2c-.009-.441-.013-1.106-.013-1.992s0-1.551-.015-1.989h.344a7.763,7.763,0,0,0,1.773-.287,8.048,8.048,0,0,0,1.7-.573,3.224,3.224,0,0,0,1.3-1.117,2.489,2.489,0,0,0-.2-3.093A3.568,3.568,0,0,0,55.658,26.4m.943,3.179a2.106,2.106,0,0,1-.344.413,5.975,5.975,0,0,1-3.207,1.091c-.246.028-.415.045-.5.053-.026-.5-.051-.879-.071-1.13-.041-.821-.056-1.367-.056-1.647v-.486c.3-.047.518-.088.672-.116a5.948,5.948,0,0,1,1.046-.071,3.74,3.74,0,0,1,1.587.229,1.91,1.91,0,0,1,.732.533,1.05,1.05,0,0,1,.214.67,1.126,1.126,0,0,1-.073.46" transform="translate(58.039 29.93)" fill="#fff"/>
      <path id="Path_2733" data-name="Path 2733" d="M25.555,29.923a2.742,2.742,0,0,0-2.231-1.245,2.293,2.293,0,0,0-1.688.744,1.935,1.935,0,0,0-.616,1.4,2.148,2.148,0,0,0,.056.5,1.824,1.824,0,0,0,1.919,1.5,1.275,1.275,0,0,0,.759-.216.6.6,0,0,0,.287-.516.767.767,0,0,0-.145-.426.809.809,0,0,0-.67-.231,1.083,1.083,0,0,1-.6-.116.552.552,0,0,1-.16-.471.665.665,0,0,1,.259-.558.949.949,0,0,1,.629-.218,1.333,1.333,0,0,1,.672.2,2.6,2.6,0,0,1,.946,1.215,4.42,4.42,0,0,1,.372,1.7,1.559,1.559,0,0,1-.314,1.074,2.561,2.561,0,0,1-1.932.742,2.491,2.491,0,0,1-1.172-.272,2.736,2.736,0,0,1-1.318-1.318,4.592,4.592,0,0,1-.46-2.058,4.9,4.9,0,0,1,.486-2.163A2.047,2.047,0,0,1,22.593,28a4.1,4.1,0,0,1,.691.073,1.006,1.006,0,0,0,.3.053.485.485,0,0,0,.355-.184.743.743,0,0,0,.216-.556.551.551,0,0,0-.171-.43,1.9,1.9,0,0,0-1.3-.387,4.089,4.089,0,0,0-1.228.2,3.7,3.7,0,0,0-1.144.631,3.662,3.662,0,0,0-.875,1,5.565,5.565,0,0,0-.486,1.288,6.11,6.11,0,0,0-.2,1.7,5.5,5.5,0,0,0,.317,2.062,4.715,4.715,0,0,0,1.617,2.193,3.994,3.994,0,0,0,2.419.77h.173c.075-.009.126-.015.156-.015a4.033,4.033,0,0,0,1.917-.571,2.987,2.987,0,0,0,1.177-1.346,2.014,2.014,0,0,0,.184-.832c0-.064-.009-.259-.028-.586a5.8,5.8,0,0,0-1.119-3.147" transform="translate(21.351 30.273)" fill="#fff"/>
      <path id="Path_2734" data-name="Path 2734" d="M24.375,27.014h-.257a3.5,3.5,0,0,0-.946.073.765.765,0,0,0-.329.242,1.535,1.535,0,0,0-.143.629q-.042.491-.043,1.6c0,.135,0,.387.015.759v2.734c.011.64.019,1.127.028,1.459v.533a.6.6,0,0,0,.287.441,1.186,1.186,0,0,0,.672.175,5.28,5.28,0,0,0,2.606-.689,3.032,3.032,0,0,0,1.476-1.66A6.775,6.775,0,0,0,28,31.453a4.882,4.882,0,0,0-1.1-3.393,3.352,3.352,0,0,0-2.522-1.046m2.075,5.757A1.954,1.954,0,0,1,25.034,34a4.882,4.882,0,0,1-.616.169c-.133,0-.218-.111-.257-.34a12.1,12.1,0,0,1-.058-1.489V28.36h.244a2.932,2.932,0,0,1,.629.116q1.547.43,1.577,2.907a6.944,6.944,0,0,1-.1,1.388" transform="translate(25.811 30.775)" fill="#fff"/>
      <path id="Path_2735" data-name="Path 2735" d="M16.762,26.2h-.053c-.68-.019-1.279-.03-1.805-.03a5.846,5.846,0,0,0-2.661.317.522.522,0,0,0-.188.257A2.368,2.368,0,0,0,12,27.4v.242q0,2.2.272,6.856.1,1.232.1,1.617a.816.816,0,0,0,.242.56.742.742,0,0,0,.518.214.751.751,0,0,0,.257-.043.772.772,0,0,0,.214-.156.63.63,0,0,0,.171-.46l-.026-.516q-.032-.369-.088-1.333T13.5,31.838c.516-.015.9-.03,1.162-.041a6.928,6.928,0,0,0,1.746-.113.669.669,0,0,0,.355-.646.8.8,0,0,0-.028-.186.639.639,0,0,0-.516-.43,7.3,7.3,0,0,0-1.617-.113H13.47c-.056-.764-.09-1.363-.1-1.8a4.789,4.789,0,0,1,.03-.86c.039-.152.274-.218.714-.2s1.361.051,2.792.1a.932.932,0,0,0,.518-.216.524.524,0,0,0,.154-.383V26.9a.647.647,0,0,0-.216-.473,1.072,1.072,0,0,0-.6-.229" transform="translate(13.668 29.815)" fill="#fff"/>
      <path id="Path_2736" data-name="Path 2736" d="M52.926,29.413a10.028,10.028,0,0,0-.729-3.048.609.609,0,0,0-.486-.2.578.578,0,0,0-.531.246,7.38,7.38,0,0,0-.531,1.271q-.472,1.293-1.6,4.8Q47.915,36,47.916,36.156a.587.587,0,0,0,.246.46.86.86,0,0,0,.526.169.5.5,0,0,0,.417-.169,5.685,5.685,0,0,0,.573-1.448q.286-.943.385-1.26c.516.049.86.075,1.031.086.466.049.821.083,1.057.1.019.019.109.539.276,1.562a8.271,8.271,0,0,0,.355,1.632.615.615,0,0,0,1.016.156.8.8,0,0,0,.173-.543q0-.273-.374-2.92t-.672-4.567m-1.66,3.136c-.458,0-.687-.045-.687-.128a2.672,2.672,0,0,1,.086-.359c.056-.2.13-.432.214-.7s.175-.524.272-.772.158-.473.216-.644.1-.265.113-.257c.248,1.4.413,2.338.488,2.8,0,.039-.233.058-.7.058" transform="translate(54.586 29.807)" fill="#fff"/>
      <path id="Path_2737" data-name="Path 2737" d="M46.176,36.8a1.566,1.566,0,0,1-.631-.659,6.956,6.956,0,0,1-.287-1.373,10.133,10.133,0,0,0-.272-1.489,2.94,2.94,0,0,0-.471-.916c-.173-.259-.287-.43-.342-.516.122-.047.216-.088.285-.113a2.493,2.493,0,0,0,1.115-.931,2.407,2.407,0,0,0,.417-1.376,2.343,2.343,0,0,0-.445-1.4,2.951,2.951,0,0,0-1.232-.986,4.6,4.6,0,0,0-1.786-.259,7.168,7.168,0,0,0-1.132.083,1.721,1.721,0,0,0-.946.332.624.624,0,0,0-.086.317q-.013.257-.03,3.406v1.947a8.312,8.312,0,0,0,.2,2.475c.068.116.225.173.475.173.314,0,.509-.1.586-.3a5.448,5.448,0,0,0,.128-1.547V32.205c.173.03.3.056.387.071a1.552,1.552,0,0,1,.742.374,2.257,2.257,0,0,1,.674.815,5.044,5.044,0,0,1,.3,1.358,6.423,6.423,0,0,0,.483,2.022,2.67,2.67,0,0,0,1.076,1.127,1.409,1.409,0,0,0,.672.216.676.676,0,0,0,.556-.3.734.734,0,0,0,.145-.37c0-.242-.195-.477-.586-.717m-3.722-6.026-.689.045c0-.289-.009-.717-.028-1.292s-.028-1.016-.028-1.3c.152-.017.267-.032.342-.039a3.12,3.12,0,0,1,.4-.03,3.079,3.079,0,0,1,1.4.242,1.256,1.256,0,0,1,.516.443,1.159,1.159,0,0,1,.2.633,1.024,1.024,0,0,1-.56.886,3.521,3.521,0,0,1-1.559.415" transform="translate(45.949 30.509)" fill="#fff"/>
      <path id="Path_2738" data-name="Path 2738" d="M59.2,26.4a5.838,5.838,0,0,0-1.4-.128,8.354,8.354,0,0,0-1.574.128q-1.46.318-1.662.616a1.8,1.8,0,0,0-.071.631c0,.094.011.317.028.672q.058.815.158,4.535a28.18,28.18,0,0,0,.2,3.694.561.561,0,0,0,.518.3.752.752,0,0,0,.443-.141,2.419,2.419,0,0,1,.287-.2c-.011-.441-.015-1.106-.015-1.992s0-1.551-.015-1.989h.344a7.763,7.763,0,0,0,1.773-.287,8,8,0,0,0,1.7-.573,3.21,3.21,0,0,0,1.3-1.117,2.489,2.489,0,0,0-.2-3.093A3.559,3.559,0,0,0,59.2,26.4m.943,3.179a2.158,2.158,0,0,1-.342.413A5.991,5.991,0,0,1,56.6,31.083c-.246.028-.415.045-.5.053-.026-.5-.051-.879-.071-1.13-.041-.821-.056-1.367-.056-1.647v-.486c.293-.047.518-.088.672-.116a5.931,5.931,0,0,1,1.046-.071,3.734,3.734,0,0,1,1.587.229,1.91,1.91,0,0,1,.732.533,1.05,1.05,0,0,1,.214.67,1.126,1.126,0,0,1-.073.46" transform="translate(62.079 29.93)" fill="#fff"/>
      <path id="Path_2739" data-name="Path 2739" d="M21.634,29.923A2.742,2.742,0,0,0,19.4,28.678a2.293,2.293,0,0,0-1.688.744,1.924,1.924,0,0,0-.614,1.4,2.152,2.152,0,0,0,.053.5,1.823,1.823,0,0,0,1.917,1.5,1.273,1.273,0,0,0,.762-.216.6.6,0,0,0,.285-.516.763.763,0,0,0-.143-.426.811.811,0,0,0-.672-.231,1.092,1.092,0,0,1-.6-.116.559.559,0,0,1-.158-.471A.665.665,0,0,1,18.8,30.3a.949.949,0,0,1,.629-.218,1.353,1.353,0,0,1,.674.2,2.62,2.62,0,0,1,.943,1.215,4.42,4.42,0,0,1,.372,1.7,1.559,1.559,0,0,1-.314,1.074,2.562,2.562,0,0,1-1.934.742A2.488,2.488,0,0,1,18,34.745a2.736,2.736,0,0,1-1.318-1.318,4.592,4.592,0,0,1-.46-2.058,4.9,4.9,0,0,1,.486-2.163A2.047,2.047,0,0,1,18.672,28a4.122,4.122,0,0,1,.691.073,1,1,0,0,0,.3.053.485.485,0,0,0,.355-.184.743.743,0,0,0,.216-.556.551.551,0,0,0-.171-.43,1.9,1.9,0,0,0-1.3-.387,4.089,4.089,0,0,0-1.228.2,3.815,3.815,0,0,0-2.022,1.632,5.672,5.672,0,0,0-.483,1.288,6.11,6.11,0,0,0-.2,1.7,5.5,5.5,0,0,0,.317,2.062,4.7,4.7,0,0,0,1.617,2.193,3.993,3.993,0,0,0,2.417.77h.175c.075-.009.126-.015.156-.015a4.033,4.033,0,0,0,1.917-.571A2.987,2.987,0,0,0,22.6,34.488a2.014,2.014,0,0,0,.184-.832c0-.064-.009-.259-.03-.586a5.784,5.784,0,0,0-1.117-3.147" transform="translate(16.884 30.273)" fill="#fff"/>
      <path id="Path_2740" data-name="Path 2740" d="M40.823,27.56a.53.53,0,0,0-.5.3,4.57,4.57,0,0,0-.314,1.288c-.182,1.1-.466,2.379-.858,3.836s-.65,2.193-.774,2.193c-.077,0-.208-.175-.4-.533a9.4,9.4,0,0,1-.586-1.316,22.1,22.1,0,0,1-.744-2.5,23.139,23.139,0,0,1-.513-2.663,5.858,5.858,0,0,0-.19-.988.765.765,0,0,0-.212-.387A.719.719,0,0,0,35.3,26.6a.694.694,0,0,0-.417.186.773.773,0,0,0-.231.629v.218a17.762,17.762,0,0,0,.988,4.924,9.652,9.652,0,0,0,1.805,3.733,1.816,1.816,0,0,0,1.132.631c.391,0,.742-.34,1.057-1.016a20.429,20.429,0,0,0,1.1-3.436,21.407,21.407,0,0,0,.813-4.178.643.643,0,0,0-.729-.732" transform="translate(39.478 30.302)" fill="#fff"/>
      <path id="Path_2741" data-name="Path 2741" d="M34.5,27.329a.867.867,0,0,0,.787-.762.677.677,0,0,0-.261-.486.611.611,0,0,0-.411-.259.966.966,0,0,0-.344.1,1.061,1.061,0,0,0-.4.359.6.6,0,0,0,.1.843.787.787,0,0,0,.531.2" transform="translate(38.443 29.418)" fill="#fff"/>
      <path id="Path_2742" data-name="Path 2742" d="M32.781,27.069a2.638,2.638,0,0,0-1.076-.747,3.9,3.9,0,0,0-1.457-.272,4.294,4.294,0,0,0-.744.071,3.972,3.972,0,0,0-1.172.458,2.993,2.993,0,0,0-.933.674c-.171.182-.287.3-.344.357v5.671q0,1.515.03,2.073c.028.744.135,1.185.314,1.316a2.836,2.836,0,0,0,.7.186,5.174,5.174,0,0,0,.644.058,4.089,4.089,0,0,0,2.235-.659,4.289,4.289,0,0,0,1.555-1.8,10.447,10.447,0,0,0,.948-4.552v-.184a6.435,6.435,0,0,0-.145-1.579,3.092,3.092,0,0,0-.556-1.07m-.762,3.2a10.424,10.424,0,0,1-.227,2.118,5.166,5.166,0,0,1-1.159,2.3,2.45,2.45,0,0,1-1.818.774h-.37V28.154c.13-.083.231-.152.3-.2a2.733,2.733,0,0,1,1.632-.445h.171a1.467,1.467,0,0,1,.873.244,1.148,1.148,0,0,1,.488.6,3.927,3.927,0,0,1,.128,1.2c0,.3-.006.535-.017.717" transform="translate(30.82 29.678)" fill="#fff"/>
      <path id="Path_2743" data-name="Path 2743" d="M39.825,28.35c.075.011.5.056,1.258.13.135.009.3.015.488.015a1.46,1.46,0,0,0,.759-.145.556.556,0,0,0,.216-.5.606.606,0,0,0-.272-.571,2.931,2.931,0,0,0-1.132-.246c-.65-.064-1.228-.1-1.733-.1q-.959,0-1.13.186a1.829,1.829,0,0,0-.158.815c-.017.458-.028,1.581-.028,3.363v3.679a1.047,1.047,0,0,0,.086.372.462.462,0,0,0,.2.214,1.122,1.122,0,0,0,.317.13,1.739,1.739,0,0,0,.314.03h.056c.06,0,.263-.015.616-.045a8.559,8.559,0,0,0,2.1-.329c.441-.141.661-.362.661-.657a.629.629,0,0,0-.229-.471.618.618,0,0,0-.458-.188c-.039,0-.165.009-.374.028-.133.021-.366.049-.7.088s-.511.058-.528.058c-.314.017-.524.03-.629.041,0-.477.006-.841.013-1.087.019-.811.034-1.277.045-1.388,0-.145.032-.229.1-.259a4.109,4.109,0,0,1,.672-.028,2.07,2.07,0,0,0,.973-.158.546.546,0,0,0,.257-.528.63.63,0,0,0-.227-.558,1.6,1.6,0,0,0-.845-.158h-.2c-.421.019-.7.028-.83.028V28.295c.15.026.265.047.342.056" transform="translate(43.397 30.684)" fill="#fff"/>
      <path id="Path_2744" data-name="Path 2744" d="M35.086,27.276a.79.79,0,0,0-.571-.289.6.6,0,0,0-.3.073.8.8,0,0,0-.344.629,16.983,16.983,0,0,0-.086,2.2v1.461q.042,2.4.073,2.935a1.3,1.3,0,0,0,.171.717.675.675,0,0,0,.516.214.728.728,0,0,0,.516-.2,1.2,1.2,0,0,0,.171-.672q.029-.529.03-3.207,0-2.5-.03-3.106a1.583,1.583,0,0,0-.145-.757" transform="translate(38.488 30.744)" fill="#fff"/>
      <path id="Path_2745" data-name="Path 2745" d="M48.519,26.9a.6.6,0,0,0-.428.216,11.078,11.078,0,0,0-.9,1.1,9.837,9.837,0,0,1-1.074,1.318c-.019,0-.3-.359-.845-1.074a11.762,11.762,0,0,0-1-1.2.519.519,0,0,0-.342-.126.758.758,0,0,0-.516.2.591.591,0,0,0-.246.471.383.383,0,0,0,.03.171,12.333,12.333,0,0,0,1.748,2.347c.257.3.426.5.516.6.036,1.089.066,1.9.083,2.447A13.777,13.777,0,0,0,45.73,35.8a.567.567,0,0,0,.629.4.559.559,0,0,0,.516-.212A3.09,3.09,0,0,0,47,34.831c0-.163-.009-.672-.026-1.534q-.074-1.829-.1-2.432.327-.388.488-.571,1.871-2.278,1.872-2.764a.6.6,0,0,0-.2-.46.722.722,0,0,0-.513-.169" transform="translate(49.174 30.646)" fill="#fff"/>
      <path id="Path_2746" data-name="Path 2746" d="M32.006,28.35c.075.011.5.056,1.258.13.133.009.3.015.486.015a1.46,1.46,0,0,0,.759-.145.552.552,0,0,0,.216-.5.606.606,0,0,0-.272-.571,2.92,2.92,0,0,0-1.132-.246c-.65-.064-1.226-.1-1.733-.1-.637,0-1.016.062-1.13.186a1.829,1.829,0,0,0-.158.815c-.017.458-.028,1.581-.028,3.363v3.679a1.048,1.048,0,0,0,.086.372.462.462,0,0,0,.2.214,1.149,1.149,0,0,0,.317.13,1.744,1.744,0,0,0,.317.03h.053q.09,0,.616-.045a8.581,8.581,0,0,0,2.1-.329c.439-.141.659-.362.659-.657a.629.629,0,0,0-.229-.471.615.615,0,0,0-.458-.188c-.039,0-.163.009-.374.028-.13.021-.366.049-.7.088s-.509.058-.528.058c-.314.017-.524.03-.629.041,0-.477.006-.841.013-1.087.019-.811.034-1.277.045-1.388,0-.145.032-.229.1-.259a4.125,4.125,0,0,1,.674-.028,2.076,2.076,0,0,0,.973-.158.55.55,0,0,0,.257-.528.636.636,0,0,0-.227-.558,1.6,1.6,0,0,0-.845-.158h-.2c-.421.019-.7.028-.83.028V28.295c.152.026.265.047.344.056" transform="translate(34.487 30.684)" fill="#fff"/>
      <path id="Path_2747" data-name="Path 2747" d="M34.721,34.89a.6.6,0,0,0-.374-.516c-.171-.077-.285-.128-.342-.158V30.81q0-2.349-.028-2.922a1.326,1.326,0,0,0-.16-.714.673.673,0,0,0-.541-.287.787.787,0,0,0-.3.073.757.757,0,0,0-.372.558,11.324,11.324,0,0,0-.088,1.788c0,.259.013.984.03,2.176,0,.135.006.329.015.586a23.4,23.4,0,0,0,.158,3.123c.077.306.314.456.714.456h.244a2.162,2.162,0,0,0,.83-.113.509.509,0,0,0,.227-.488l-.011-.071Z" transform="translate(37.039 30.631)" fill="#fff"/>
    </g>
  </g>
</svg>
